<svg width="108" height="27" viewBox="0 0 108 27" fill="none" xmlns="http://www.w3.org/2000/svg">
<path d="M4.426 22.872H12.416V26H0.55V2.37H4.426V22.872ZM26.4354 26.238C24.2368 26.238 22.2081 25.728 20.3494 24.708C18.5134 23.6653 17.0514 22.226 15.9634 20.39C14.8981 18.5313 14.3654 16.446 14.3654 14.134C14.3654 11.822 14.8981 9.748 15.9634 7.912C17.0514 6.076 18.5134 4.648 20.3494 3.628C22.2081 2.58533 24.2368 2.064 26.4354 2.064C28.6568 2.064 30.6854 2.58533 32.5214 3.628C34.3801 4.648 35.8421 6.076 36.9074 7.912C37.9728 9.748 38.5054 11.822 38.5054 14.134C38.5054 16.446 37.9728 18.5313 36.9074 20.39C35.8421 22.226 34.3801 23.6653 32.5214 24.708C30.6854 25.728 28.6568 26.238 26.4354 26.238ZM26.4354 22.872C27.9994 22.872 29.3934 22.5207 30.6174 21.818C31.8414 21.0927 32.7934 20.0727 33.4734 18.758C34.1761 17.4207 34.5274 15.8793 34.5274 14.134C34.5274 12.3887 34.1761 10.8587 33.4734 9.544C32.7934 8.22933 31.8414 7.22067 30.6174 6.518C29.3934 5.81533 27.9994 5.464 26.4354 5.464C24.8714 5.464 23.4774 5.81533 22.2534 6.518C21.0294 7.22067 20.0661 8.22933 19.3634 9.544C18.6834 10.8587 18.3434 12.3887 18.3434 14.134C18.3434 15.8793 18.6834 17.4207 19.3634 18.758C20.0661 20.0727 21.0294 21.0927 22.2534 21.818C23.4774 22.5207 24.8714 22.872 26.4354 22.872ZM59.4215 9.17C58.8095 7.99133 57.9595 7.10733 56.8715 6.518C55.7835 5.906 54.5255 5.6 53.0975 5.6C51.5335 5.6 50.1395 5.95133 48.9155 6.654C47.6915 7.35667 46.7282 8.354 46.0255 9.646C45.3455 10.938 45.0055 12.434 45.0055 14.134C45.0055 15.834 45.3455 17.3413 46.0255 18.656C46.7282 19.948 47.6915 20.9453 48.9155 21.648C50.1395 22.3507 51.5335 22.702 53.0975 22.702C55.2055 22.702 56.9169 22.1127 58.2315 20.934C59.5462 19.7553 60.3509 18.1573 60.6455 16.14H51.7715V13.046H64.7935V16.072C64.5442 17.908 63.8869 19.5967 62.8215 21.138C61.7789 22.6793 60.4075 23.9147 58.7075 24.844C57.0302 25.7507 55.1602 26.204 53.0975 26.204C50.8762 26.204 48.8475 25.694 47.0115 24.674C45.1755 23.6313 43.7135 22.192 42.6255 20.356C41.5602 18.52 41.0275 16.446 41.0275 14.134C41.0275 11.822 41.5602 9.748 42.6255 7.912C43.7135 6.076 45.1755 4.648 47.0115 3.628C48.8702 2.58533 50.8989 2.064 53.0975 2.064C55.6135 2.064 57.8462 2.68733 59.7955 3.934C61.7675 5.158 63.1955 6.90333 64.0795 9.17H59.4215ZM79.3944 26.238C77.1957 26.238 75.1671 25.728 73.3084 24.708C71.4724 23.6653 70.0104 22.226 68.9224 20.39C67.8571 18.5313 67.3244 16.446 67.3244 14.134C67.3244 11.822 67.8571 9.748 68.9224 7.912C70.0104 6.076 71.4724 4.648 73.3084 3.628C75.1671 2.58533 77.1957 2.064 79.3944 2.064C81.6157 2.064 83.6444 2.58533 85.4804 3.628C87.3391 4.648 88.8011 6.076 89.8664 7.912C90.9317 9.748 91.4644 11.822 91.4644 14.134C91.4644 16.446 90.9317 18.5313 89.8664 20.39C88.8011 22.226 87.3391 23.6653 85.4804 24.708C83.6444 25.728 81.6157 26.238 79.3944 26.238ZM79.3944 22.872C80.9584 22.872 82.3524 22.5207 83.5764 21.818C84.8004 21.0927 85.7524 20.0727 86.4324 18.758C87.1351 17.4207 87.4864 15.8793 87.4864 14.134C87.4864 12.3887 87.1351 10.8587 86.4324 9.544C85.7524 8.22933 84.8004 7.22067 83.5764 6.518C82.3524 5.81533 80.9584 5.464 79.3944 5.464C77.8304 5.464 76.4364 5.81533 75.2124 6.518C73.9884 7.22067 73.0251 8.22933 72.3224 9.544C71.6424 10.8587 71.3024 12.3887 71.3024 14.134C71.3024 15.8793 71.6424 17.4207 72.3224 18.758C73.0251 20.0727 73.9884 21.0927 75.2124 21.818C76.4364 22.5207 77.8304 22.872 79.3944 22.872ZM106.057 2.914L107.587 5.634L102.929 7.368L107.587 9.102L106.023 11.89L102.147 8.83L102.861 13.76H99.7325L100.379 8.83L96.5025 11.958L94.8705 9.068L99.4945 7.334L94.8705 5.668L96.4345 2.88L100.413 5.94L99.7325 0.975998H102.895L102.147 5.94L106.057 2.914Z" fill="white"/>
</svg>
